<svg width="34" height="27" viewBox="0 0 34 27" fill="none" xmlns="http://www.w3.org/2000/svg">
<path d="M4.25 10.25C4.25 10.7781 4.54219 11.5161 5.38555 12.3016C8.40039 10.663 12.5441 9.70833 17 9.70833C21.4559 9.70833 25.5996 10.663 28.6145 12.3016C29.4578 11.5161 29.75 10.7781 29.75 10.25C29.75 9.41719 29.0328 8.08333 26.5691 6.82396C24.2316 5.63229 20.8516 4.83333 17 4.83333C13.1484 4.83333 9.76836 5.63229 7.43086 6.82396C4.96719 8.08333 4.25 9.41719 4.25 10.25ZM17 12.9583C13.8789 12.9583 11.0699 13.4729 8.83867 14.2922C11.0434 15.1385 13.8656 15.6667 17 15.6667C20.1344 15.6667 22.9566 15.1385 25.1613 14.2922C22.9301 13.4729 20.1211 12.9583 17 12.9583ZM0 10.25C0 6.89167 2.61641 4.44062 5.53164 2.95104C8.57305 1.40052 12.6371 0.5 17 0.5C21.3629 0.5 25.427 1.40052 28.4684 2.95104C31.3836 4.44062 34 6.89167 34 10.25V16.75C34 20.1083 31.3836 22.5594 28.4684 24.049C25.427 25.5995 21.3629 26.5 17 26.5C12.6371 26.5 8.57305 25.5995 5.53164 24.049C2.61641 22.5594 0 20.1083 0 16.75V10.25Z" fill="#D4AF37"/>
</svg>
