<svg width="30" height="26" viewBox="0 0 30 26" fill="none" xmlns="http://www.w3.org/2000/svg">
<path d="M15 0C18.9782 0 22.7936 1.36964 25.6066 3.80761C28.4196 6.24558 30 9.55219 30 13C30 16.4478 28.4196 19.7544 25.6066 22.1924C22.7936 24.6304 18.9782 26 15 26C11.0218 26 7.20644 24.6304 4.3934 22.1924C1.58035 19.7544 0 16.4478 0 13C0 9.55219 1.58035 6.24558 4.3934 3.80761C7.20644 1.36964 11.0218 0 15 0ZM13.5938 6.09375V13C13.5938 13.4062 13.8281 13.7871 14.2207 14.0156L19.8457 17.2656C20.4902 17.6414 21.3633 17.4891 21.7969 16.9254C22.2305 16.3617 22.0547 15.6102 21.4043 15.2344L16.4062 12.35V6.09375C16.4062 5.41836 15.7793 4.875 15 4.875C14.2207 4.875 13.5938 5.41836 13.5938 6.09375Z" fill="#D4AF37"/>
</svg>
