<svg width="30" height="31" viewBox="0 0 30 31" fill="none" xmlns="http://www.w3.org/2000/svg">
<path d="M16.0938 5.45536C16.6875 4.98661 17.0833 4.13616 17.0833 3.17857C17.0833 1.69866 16.151 0.5 15 0.5C13.849 0.5 12.9167 1.69866 12.9167 3.17857C12.9167 4.14286 13.3125 4.98661 13.9062 5.45536L10.9219 13.1295C10.4479 14.3482 9.21875 14.6964 8.39062 13.846L3.75 9.07143C4.01042 8.62277 4.16667 8.06696 4.16667 7.46429C4.16667 5.98438 3.23438 4.78571 2.08333 4.78571C0.932292 4.78571 0 5.98438 0 7.46429C0 8.9442 0.932292 10.1429 2.08333 10.1429C2.09375 10.1429 2.10938 10.1429 2.11979 10.1429L4.5 26.9777C4.78646 29.0134 6.16667 30.5 7.78125 30.5H22.2188C23.8281 30.5 25.2083 29.0201 25.5 26.9777L27.8802 10.1429C27.8906 10.1429 27.9062 10.1429 27.9167 10.1429C29.0677 10.1429 30 8.9442 30 7.46429C30 5.98438 29.0677 4.78571 27.9167 4.78571C26.7656 4.78571 25.8333 5.98438 25.8333 7.46429C25.8333 8.06696 25.9896 8.62277 26.25 9.07143L21.6094 13.846C20.7812 14.6964 19.5521 14.3482 19.0781 13.1295L16.0938 5.45536Z" fill="#D4AF37"/>
</svg>
