<svg width="30" height="31" viewBox="0 0 30 31" fill="none" xmlns="http://www.w3.org/2000/svg">
<path d="M15.0004 0.5C14.6207 0.5 14.2457 0.593732 13.8894 0.7745L0.741329 7.55665C0.296027 7.79098 0.000721495 8.39354 0.000721495 9.06975C0.000721495 9.74596 0.296027 10.3485 0.741329 10.5828L3.45533 11.9821C2.68659 13.7095 2.25067 15.7515 2.25067 17.9006V19.7819C2.25067 21.6833 1.74443 23.645 1.20538 25.1916C0.9007 26.062 0.553833 26.9189 0.150718 27.709C0.000721497 27.9968 -0.041465 28.3718 0.042908 28.7132C0.127281 29.0547 0.324151 29.3091 0.567895 29.3961L3.56782 30.4673C3.76469 30.541 3.97563 30.4874 4.14906 30.3334C4.32249 30.1795 4.44436 29.925 4.48186 29.6371C4.88498 26.7716 4.68342 24.2007 4.38343 22.3596C4.23343 21.4088 4.03187 20.4381 3.75063 19.5476V17.9006C3.75063 15.8787 4.22874 13.9706 5.05841 12.4441C5.66309 11.4063 6.44588 10.5695 7.36461 10.0539L14.7238 5.92304C15.1082 5.7088 15.5441 5.97661 15.6941 6.5256C15.8441 7.0746 15.6566 7.69725 15.2722 7.91149L7.91303 12.0424C7.3318 12.3704 6.82087 12.8726 6.40369 13.4885L13.8848 17.3449C14.241 17.5257 14.616 17.6194 14.9957 17.6194C15.3754 17.6194 15.7503 17.5257 16.1066 17.3449L29.2594 10.5828C29.7047 10.3552 30 9.74596 30 9.06975C30 8.39354 29.7047 7.79098 29.2594 7.55665L16.1113 0.7745C15.755 0.593732 15.38 0.5 15.0004 0.5ZM6.00058 25.6736C6.00058 28.037 10.0317 30.4941 15.0004 30.4941C19.969 30.4941 24.0001 28.037 24.0001 25.6736L23.283 15.9389L16.6175 19.3802C16.0972 19.648 15.5488 19.7819 15.0004 19.7819C14.4519 19.7819 13.8988 19.648 13.3832 19.3802L6.71775 15.9389L6.00058 25.6736Z" fill="#D4AF37"/>
</svg>
