<svg width="40" height="29" viewBox="0 0 40 29" fill="none" xmlns="http://www.w3.org/2000/svg">
<path d="M20.0005 0.5C19.5069 0.5 19.0194 0.587483 18.5563 0.7562L1.46373 7.08621C0.884835 7.30492 0.500938 7.86731 0.500938 8.49843C0.500938 9.12956 0.884835 9.69195 1.46373 9.91066L4.99192 11.2167C3.99257 12.8288 3.42587 14.7347 3.42587 16.7406V18.4965C3.42587 20.2711 2.76776 22.102 2.06699 23.5455C1.67091 24.3578 1.21998 25.1577 0.695933 25.895C0.500938 26.1637 0.446096 26.5137 0.55578 26.8323C0.665465 27.151 0.921397 27.3885 1.23826 27.4697L5.13817 28.4695C5.3941 28.5383 5.66831 28.4883 5.89378 28.3445C6.11924 28.2008 6.27767 27.9634 6.32642 27.6947C6.85047 25.0202 6.58845 22.6207 6.19846 20.9023C6.00346 20.0149 5.74144 19.1089 5.37582 18.2778V16.7406C5.37582 14.8534 5.99737 13.0725 7.07594 11.6478C7.86201 10.6793 8.87964 9.89816 10.074 9.417L19.6409 5.56151C20.1406 5.36155 20.7073 5.6115 20.9023 6.1239C21.0973 6.6363 20.8536 7.21743 20.3539 7.41739L10.7869 11.2729C10.0313 11.5791 9.36713 12.0477 8.8248 12.6226L18.5502 16.2219C19.0133 16.3906 19.5008 16.4781 19.9944 16.4781C20.488 16.4781 20.9754 16.3906 21.4386 16.2219L38.5372 9.91066C39.1161 9.6982 39.5 9.12956 39.5 8.49843C39.5 7.86731 39.1161 7.30492 38.5372 7.08621L21.4447 0.7562C20.9815 0.587483 20.494 0.5 20.0005 0.5ZM8.30075 23.9954C8.30075 26.2012 13.5412 28.4945 20.0005 28.4945C26.4597 28.4945 31.7002 26.2012 31.7002 23.9954L30.7679 14.9097L22.1028 18.1215C21.4264 18.3715 20.7134 18.4965 20.0005 18.4965C19.2875 18.4965 18.5685 18.3715 17.8982 18.1215L9.23307 14.9097L8.30075 23.9954Z" fill="#D4AF37"/>
</svg>
