<svg width="44" height="31" viewBox="0 0 44 31" fill="none" xmlns="http://www.w3.org/2000/svg">
<path d="M22.2338 2.15641L15.5788 8.282C14.4719 9.29772 14.2588 11.126 15.0975 12.4308C15.9844 13.8216 17.71 14.0951 18.8994 13.0403L25.7263 7.00844C26.2075 6.58652 26.895 6.68028 27.2731 7.22721C27.6513 7.77414 27.5619 8.55546 27.0806 8.98519L25.6438 10.2509L35.2 20.2519V5.50048H35.1519L34.8838 5.30515L29.8925 1.67199C28.8406 0.906289 27.61 0.5 26.3588 0.5C24.86 0.5 23.4025 1.08599 22.2338 2.15641ZM23.8013 11.8761L20.2469 15.017C18.0813 16.9391 14.9394 16.439 13.3169 13.9075C11.7906 11.5245 12.1756 8.19605 14.19 6.34431L19.91 1.08599C19.1125 0.703145 18.2531 0.507813 17.38 0.507813C16.0875 0.5 14.8294 0.937542 13.75 1.75012L8.8 5.50048V23.0022H10.7388L17.0225 29.5184C18.37 30.917 20.4531 30.8076 21.6838 29.2762C22.0619 28.7996 22.3163 28.2449 22.4469 27.6667L23.6156 28.8855C24.9563 30.2841 27.0463 30.1825 28.2769 28.659C28.5863 28.2761 28.8131 27.8308 28.9575 27.3698C30.2913 28.3855 32.1063 28.1745 33.2269 26.7838C34.4575 25.2602 34.3681 22.885 33.0275 21.4864L23.8013 11.8761ZM1.1 5.50048C0.495 5.50048 0 6.06304 0 6.7506V23.0022C0 24.3851 0.983125 25.5024 2.2 25.5024H4.4C5.61688 25.5024 6.6 24.3851 6.6 23.0022V5.50048H1.1ZM3.3 20.5019C3.59174 20.5019 3.87153 20.6336 4.07782 20.8681C4.28411 21.1025 4.4 21.4205 4.4 21.752C4.4 22.0836 4.28411 22.4016 4.07782 22.636C3.87153 22.8705 3.59174 23.0022 3.3 23.0022C3.00826 23.0022 2.72847 22.8705 2.52218 22.636C2.31589 22.4016 2.2 22.0836 2.2 21.752C2.2 21.4205 2.31589 21.1025 2.52218 20.8681C2.72847 20.6336 3.00826 20.5019 3.3 20.5019ZM37.4 5.50048V23.0022C37.4 24.3851 38.3831 25.5024 39.6 25.5024H41.8C43.0169 25.5024 44 24.3851 44 23.0022V6.7506C44 6.06304 43.505 5.50048 42.9 5.50048H37.4ZM39.6 21.752C39.6 21.4205 39.7159 21.1025 39.9222 20.8681C40.1285 20.6336 40.4083 20.5019 40.7 20.5019C40.9917 20.5019 41.2715 20.6336 41.4778 20.8681C41.6841 21.1025 41.8 21.4205 41.8 21.752C41.8 22.0836 41.6841 22.4016 41.4778 22.636C41.2715 22.8705 40.9917 23.0022 40.7 23.0022C40.4083 23.0022 40.1285 22.8705 39.9222 22.636C39.7159 22.4016 39.6 22.0836 39.6 21.752Z" fill="#D4AF37"/>
</svg>
