<svg width="30" height="23" viewBox="0 0 30 23" fill="none" xmlns="http://www.w3.org/2000/svg">
<path d="M15.1594 1.26991L10.6219 5.9662C9.86719 6.74492 9.72188 8.14662 10.2938 9.14697C10.8984 10.2132 12.075 10.4229 12.8859 9.61421L17.5406 4.9898C17.8688 4.66633 18.3375 4.73822 18.5953 5.15753C18.8531 5.57684 18.7922 6.17585 18.4641 6.50531L17.4844 7.47572L24 15.1431V3.8337H23.9672L23.7844 3.68395L20.3813 0.898524C19.6641 0.311488 18.825 0 17.9719 0C16.95 0 15.9563 0.449262 15.1594 1.26991ZM16.2281 8.72167L13.8047 11.1297C12.3281 12.6033 10.1859 12.2199 9.07969 10.2791C8.03906 8.45212 8.30156 5.90031 9.675 4.48064L13.575 0.449262C13.0313 0.155744 12.4453 0.00599007 11.85 0.00599007C10.9688 -9.15723e-08 10.1109 0.335449 9.375 0.958425L6 3.8337V17.2517H7.32188L11.6063 22.2474C12.525 23.3197 13.9453 23.2358 14.7844 22.0618C15.0422 21.6964 15.2156 21.2711 15.3047 20.8278L16.1016 21.7622C17.0156 22.8345 18.4406 22.7566 19.2797 21.5885C19.4906 21.295 19.6453 20.9536 19.7438 20.6002C20.6531 21.3789 21.8906 21.2171 22.6547 20.1509C23.4938 18.9828 23.4328 17.1618 22.5188 16.0896L16.2281 8.72167ZM0.75 3.8337C0.3375 3.8337 0 4.26499 0 4.79213V17.2517C0 18.3119 0.670313 19.1685 1.5 19.1685H3C3.82969 19.1685 4.5 18.3119 4.5 17.2517V3.8337H0.75ZM2.25 15.3348C2.44891 15.3348 2.63968 15.4358 2.78033 15.6155C2.92098 15.7953 3 16.039 3 16.2932C3 16.5474 2.92098 16.7912 2.78033 16.9709C2.63968 17.1507 2.44891 17.2517 2.25 17.2517C2.05109 17.2517 1.86032 17.1507 1.71967 16.9709C1.57902 16.7912 1.5 16.5474 1.5 16.2932C1.5 16.039 1.57902 15.7953 1.71967 15.6155C1.86032 15.4358 2.05109 15.3348 2.25 15.3348ZM25.5 3.8337V17.2517C25.5 18.3119 26.1703 19.1685 27 19.1685H28.5C29.3297 19.1685 30 18.3119 30 17.2517V4.79213C30 4.26499 29.6625 3.8337 29.25 3.8337H25.5ZM27 16.2932C27 16.039 27.079 15.7953 27.2197 15.6155C27.3603 15.4358 27.5511 15.3348 27.75 15.3348C27.9489 15.3348 28.1397 15.4358 28.2803 15.6155C28.421 15.7953 28.5 16.039 28.5 16.2932C28.5 16.5474 28.421 16.7912 28.2803 16.9709C28.1397 17.1507 27.9489 17.2517 27.75 17.2517C27.5511 17.2517 27.3603 17.1507 27.2197 16.9709C27.079 16.7912 27 16.5474 27 16.2932Z" fill="#D4AF37"/>
</svg>
