<svg width="30" height="33" viewBox="0 0 30 33" fill="none" xmlns="http://www.w3.org/2000/svg">
<path d="M21.8182 24.5C22.6364 22.5063 24.3324 20.8062 26.0114 19.1125C26.4545 18.6687 26.8977 18.225 27.3239 17.775C29.0114 15.9938 30 13.8375 30 11.5063C30 5.425 23.2841 0.5 15 0.5C6.71591 0.5 0 5.425 0 11.5C0 13.8313 0.988636 15.9937 2.67614 17.7687C3.10227 18.2187 3.54545 18.6625 3.98864 19.1063C5.67614 20.8 7.37216 22.5063 8.18182 24.4938H21.8182V24.5ZM15 32.5C18.767 32.5 21.8182 30.2625 21.8182 27.5V26.5H8.18182V27.5C8.18182 30.2625 11.233 32.5 15 32.5ZM8.18182 11.5C8.18182 12.05 7.56818 12.5 6.81818 12.5C6.06818 12.5 5.45455 12.05 5.45455 11.5C5.45455 7.63125 9.72443 4.5 15 4.5C15.75 4.5 16.3636 4.95 16.3636 5.5C16.3636 6.05 15.75 6.5 15 6.5C11.233 6.5 8.18182 8.7375 8.18182 11.5Z" fill="#D4AF37"/>
</svg>
