<svg width="20" height="31" viewBox="0 0 20 31" fill="none" xmlns="http://www.w3.org/2000/svg">
<path d="M14.5455 23C15.0909 21.1309 16.2216 19.5371 17.3409 17.9492C17.6364 17.5332 17.9318 17.1172 18.2159 16.6953C19.3409 15.0254 20 13.0039 20 10.8184C20 5.11719 15.5227 0.5 10 0.5C4.47727 0.5 0 5.11719 0 10.8125C0 12.998 0.659091 15.0254 1.78409 16.6895C2.06818 17.1113 2.36364 17.5273 2.65909 17.9434C3.78409 19.5312 4.91477 21.1309 5.45455 22.9941H14.5455V23ZM10 30.5C12.5114 30.5 14.5455 28.4023 14.5455 25.8125V24.875H5.45455V25.8125C5.45455 28.4023 7.48864 30.5 10 30.5ZM5.45455 10.8125C5.45455 11.3281 5.04545 11.75 4.54545 11.75C4.04545 11.75 3.63636 11.3281 3.63636 10.8125C3.63636 7.18555 6.48295 4.25 10 4.25C10.5 4.25 10.9091 4.67188 10.9091 5.1875C10.9091 5.70312 10.5 6.125 10 6.125C7.48864 6.125 5.45455 8.22266 5.45455 10.8125Z" fill="#D4AF37"/>
</svg>
