<svg width="22" height="29" viewBox="0 0 22 29" fill="none" xmlns="http://www.w3.org/2000/svg">
<path d="M2.75 0C1.23177 0 0 1.21777 0 2.71875V26.2812C0 27.7822 1.23177 29 2.75 29H8.25V24.4688C8.25 22.9678 9.48177 21.75 11 21.75C12.5182 21.75 13.75 22.9678 13.75 24.4688V29H19.25C20.7682 29 22 27.7822 22 26.2812V2.71875C22 1.21777 20.7682 0 19.25 0H2.75ZM3.66667 13.5938C3.66667 13.0953 4.07917 12.6875 4.58333 12.6875H6.41667C6.92083 12.6875 7.33333 13.0953 7.33333 13.5938V15.4062C7.33333 15.9047 6.92083 16.3125 6.41667 16.3125H4.58333C4.07917 16.3125 3.66667 15.9047 3.66667 15.4062V13.5938ZM10.0833 12.6875H11.9167C12.4208 12.6875 12.8333 13.0953 12.8333 13.5938V15.4062C12.8333 15.9047 12.4208 16.3125 11.9167 16.3125H10.0833C9.57917 16.3125 9.16667 15.9047 9.16667 15.4062V13.5938C9.16667 13.0953 9.57917 12.6875 10.0833 12.6875ZM14.6667 13.5938C14.6667 13.0953 15.0792 12.6875 15.5833 12.6875H17.4167C17.9208 12.6875 18.3333 13.0953 18.3333 13.5938V15.4062C18.3333 15.9047 17.9208 16.3125 17.4167 16.3125H15.5833C15.0792 16.3125 14.6667 15.9047 14.6667 15.4062V13.5938ZM4.58333 5.4375H6.41667C6.92083 5.4375 7.33333 5.84531 7.33333 6.34375V8.15625C7.33333 8.65469 6.92083 9.0625 6.41667 9.0625H4.58333C4.07917 9.0625 3.66667 8.65469 3.66667 8.15625V6.34375C3.66667 5.84531 4.07917 5.4375 4.58333 5.4375ZM9.16667 6.34375C9.16667 5.84531 9.57917 5.4375 10.0833 5.4375H11.9167C12.4208 5.4375 12.8333 5.84531 12.8333 6.34375V8.15625C12.8333 8.65469 12.4208 9.0625 11.9167 9.0625H10.0833C9.57917 9.0625 9.16667 8.65469 9.16667 8.15625V6.34375ZM15.5833 5.4375H17.4167C17.9208 5.4375 18.3333 5.84531 18.3333 6.34375V8.15625C18.3333 8.65469 17.9208 9.0625 17.4167 9.0625H15.5833C15.0792 9.0625 14.6667 8.65469 14.6667 8.15625V6.34375C14.6667 5.84531 15.0792 5.4375 15.5833 5.4375Z" fill="#D4AF37"/>
</svg>
