<svg width="30" height="31" viewBox="0 0 30 31" fill="none" xmlns="http://www.w3.org/2000/svg">
<path d="M3.75 0.5C1.67969 0.5 0 1.75977 0 3.3125V27.6875C0 29.2402 1.67969 30.5 3.75 30.5H11.25V25.8125C11.25 24.2598 12.9297 23 15 23C17.0703 23 18.75 24.2598 18.75 25.8125V30.5H26.25C28.3203 30.5 30 29.2402 30 27.6875V3.3125C30 1.75977 28.3203 0.5 26.25 0.5H3.75ZM5 14.5625C5 14.0469 5.5625 13.625 6.25 13.625H8.75C9.4375 13.625 10 14.0469 10 14.5625V16.4375C10 16.9531 9.4375 17.375 8.75 17.375H6.25C5.5625 17.375 5 16.9531 5 16.4375V14.5625ZM13.75 13.625H16.25C16.9375 13.625 17.5 14.0469 17.5 14.5625V16.4375C17.5 16.9531 16.9375 17.375 16.25 17.375H13.75C13.0625 17.375 12.5 16.9531 12.5 16.4375V14.5625C12.5 14.0469 13.0625 13.625 13.75 13.625ZM20 14.5625C20 14.0469 20.5625 13.625 21.25 13.625H23.75C24.4375 13.625 25 14.0469 25 14.5625V16.4375C25 16.9531 24.4375 17.375 23.75 17.375H21.25C20.5625 17.375 20 16.9531 20 16.4375V14.5625ZM6.25 6.125H8.75C9.4375 6.125 10 6.54687 10 7.0625V8.9375C10 9.45313 9.4375 9.875 8.75 9.875H6.25C5.5625 9.875 5 9.45313 5 8.9375V7.0625C5 6.54687 5.5625 6.125 6.25 6.125ZM12.5 7.0625C12.5 6.54687 13.0625 6.125 13.75 6.125H16.25C16.9375 6.125 17.5 6.54687 17.5 7.0625V8.9375C17.5 9.45313 16.9375 9.875 16.25 9.875H13.75C13.0625 9.875 12.5 9.45313 12.5 8.9375V7.0625ZM21.25 6.125H23.75C24.4375 6.125 25 6.54687 25 7.0625V8.9375C25 9.45313 24.4375 9.875 23.75 9.875H21.25C20.5625 9.875 20 9.45313 20 8.9375V7.0625C20 6.54687 20.5625 6.125 21.25 6.125Z" fill="#D4AF37"/>
</svg>
