<svg width="30" height="31" viewBox="0 0 30 31" fill="none" xmlns="http://www.w3.org/2000/svg">
<path d="M3.75 11.75C3.75 12.3594 4.00781 13.2109 4.75195 14.1172C7.41211 12.2266 11.0684 11.125 15 11.125C18.9316 11.125 22.5879 12.2266 25.248 14.1172C25.9922 13.2109 26.25 12.3594 26.25 11.75C26.25 10.7891 25.6172 9.25 23.4434 7.79687C21.3809 6.42187 18.3984 5.5 15 5.5C11.6016 5.5 8.61914 6.42187 6.55664 7.79687C4.38281 9.25 3.75 10.7891 3.75 11.75ZM15 14.875C12.2461 14.875 9.76758 15.4688 7.79883 16.4141C9.74414 17.3906 12.2344 18 15 18C17.7656 18 20.2559 17.3906 22.2012 16.4141C20.2324 15.4688 17.7539 14.875 15 14.875ZM0 11.75C0 7.875 2.30859 5.04687 4.88086 3.32812C7.56445 1.53906 11.1504 0.5 15 0.5C18.8496 0.5 22.4355 1.53906 25.1191 3.32812C27.6914 5.04687 30 7.875 30 11.75V19.25C30 23.125 27.6914 25.9531 25.1191 27.6719C22.4355 29.4609 18.8496 30.5 15 30.5C11.1504 30.5 7.56445 29.4609 4.88086 27.6719C2.30859 25.9531 0 23.125 0 19.25V11.75Z" fill="#D4AF37"/>
</svg>
