<svg width="30" height="31" viewBox="0 0 30 31" fill="none" xmlns="http://www.w3.org/2000/svg">
<path d="M16.6321 1.55457C16.331 0.91011 15.6947 0.5 14.9959 0.5C14.2971 0.5 13.6665 0.91011 13.3597 1.55457L9.70671 9.30566L1.5485 10.5477C0.866751 10.6532 0.29863 11.1453 0.0884249 11.819C-0.12178 12.4928 0.0486563 13.2369 0.53724 13.7348L6.45706 19.7752L5.05948 28.3113C4.94586 29.0144 5.22992 29.7292 5.79236 30.1451C6.3548 30.5611 7.09904 30.6138 7.71261 30.2799L15.0016 26.2666L22.2906 30.2799C22.9042 30.6138 23.6484 30.5669 24.2108 30.1451C24.7733 29.7233 25.0573 29.0144 24.9437 28.3113L23.5405 19.7752L29.4603 13.7348C29.9489 13.2369 30.125 12.4928 29.9091 11.819C29.6932 11.1453 29.1308 10.6532 28.449 10.5477L20.2851 9.30566L16.6321 1.55457Z" fill="#D4AF37"/>
</svg>
