<svg width="26" height="25" viewBox="0 0 26 25" fill="none" xmlns="http://www.w3.org/2000/svg">
<path d="M14.3601 0.878808C14.1092 0.341759 13.5789 0 12.9966 0C12.4143 0 11.8888 0.341759 11.6331 0.878808L8.58893 7.33805L1.79041 8.37309C1.22229 8.46097 0.748858 8.87108 0.573687 9.43254C0.398517 9.994 0.540547 10.614 0.9477 11.029L5.88088 16.0627L4.71624 23.1761C4.62155 23.762 4.85827 24.3576 5.32697 24.7043C5.79567 25.0509 6.41586 25.0948 6.92717 24.8166L13.0013 21.4722L19.0755 24.8166C19.5868 25.0948 20.207 25.0558 20.6757 24.7043C21.1444 24.3527 21.3811 23.762 21.2864 23.1761L20.1171 16.0627L25.0502 11.029C25.4574 10.614 25.6042 9.994 25.4242 9.43254C25.2443 8.87108 24.7756 8.46097 24.2075 8.37309L17.4043 7.33805L14.3601 0.878808Z" fill="#D4AF37"/>
</svg>
